<svg width="125" height="125" viewBox="0 0 125 125" fill="none" xmlns="http://www.w3.org/2000/svg">
<path d="M6.85867 54.5689C6.85867 54.4238 7.00373 54.4238 7.00373 54.2843C7.57286 53.5701 8.28706 52.8559 8.86178 52.2868L9.43091 51.7177C9.86054 51.2881 10.2902 50.8584 10.8593 50.4344C11.1439 50.1498 11.4284 50.0048 11.7186 49.7202C12.1482 49.2906 12.5778 49.006 13.0019 48.5764C13.2864 48.2918 13.571 48.1467 13.8611 47.8622C14.2908 47.5776 14.7204 47.148 15.1445 46.8634C15.429 46.5788 15.7136 46.4338 16.1432 46.2943C16.5729 46.0097 17.142 45.7252 17.5716 45.435C17.8562 45.29 18.1407 45.0054 18.5704 44.8659C19.1395 44.5813 19.5691 44.2968 20.1439 44.0066C20.4284 43.8616 20.713 43.7221 21.0031 43.577C21.7173 43.2924 22.2865 43.0079 23.0006 42.7177C23.1457 42.5727 23.2852 42.5727 23.5697 42.4332C24.429 42.1486 25.2827 41.719 26.142 41.4344C26.4265 41.2894 26.7111 41.2894 26.8562 41.1499C27.4253 41.0048 28.1395 40.7202 28.7142 40.5807C28.9988 40.4357 29.4284 40.4357 29.713 40.2962C30.2821 40.1511 30.8568 40.0116 31.4259 39.8665C31.8555 39.7215 32.1401 39.7215 32.5697 39.582C33.1389 39.4369 33.7136 39.4369 34.2826 39.2974C34.7123 39.2974 34.9968 39.1523 35.4265 39.1523C35.9956 39.1523 36.5703 39.0073 37.1394 39.0073C37.569 39.0073 37.8536 39.0073 38.2832 38.8622H38.7129V38.4326C38.7129 38.0029 38.7129 37.7184 38.8579 37.2887C38.8579 36.7196 39.003 36.1449 39.003 35.5758C39.003 35.1462 39.1481 34.8616 39.1481 34.432C39.2931 33.8629 39.2931 33.2882 39.4326 32.7191C39.4326 32.2894 39.5777 32.0049 39.5777 31.5753C39.7228 31.0061 39.8622 30.4314 40.0073 29.8623C40.1524 29.5778 40.1524 29.1481 40.2919 28.8636C40.4369 28.1494 40.7215 27.5802 40.861 26.8661C41.0061 26.5815 41.0061 26.4365 41.1456 26.1519C41.4301 25.2927 41.7147 24.439 42.1443 23.5797C42.1443 23.4346 42.2894 23.2951 42.2894 23.15C42.574 22.4358 42.8585 21.7217 43.2882 21.0075C43.4332 20.7229 43.5727 20.4383 43.7178 20.1482C44.0023 19.5791 44.2869 19.0044 44.577 18.5747C44.7221 18.2901 45.0067 18.0056 45.1462 17.7154C45.4307 17.2858 45.7153 16.7167 46.0054 16.287C46.1505 16.0025 46.4351 15.7179 46.5746 15.4278C46.8591 14.9981 47.2888 14.5685 47.5733 13.9994C47.8579 13.7148 48.003 13.4303 48.2875 13.1401C48.5721 12.7105 49.0017 12.2809 49.4313 11.8568C49.7159 11.5722 49.861 11.2877 50.1455 10.9975C50.5752 10.5679 51.0048 9.99878 51.4289 9.56915C51.5739 9.42408 51.8585 9.13952 51.998 9.00002C52.7122 8.28583 53.2813 7.7167 53.9954 7.14197C54.1405 6.99691 54.1405 6.99691 54.28 6.85741C54.8491 6.28828 55.5633 5.85865 56.1381 5.2839C56.4226 5.13883 56.7072 4.85426 56.9973 4.71477C57.4269 4.4302 57.7115 4.14564 58.1411 3.85551C52.7121 1.28326 46.8592 0 40.8548 0C18.2848 0.290134 0 18.5748 0 41.139C0 47.1371 1.28332 52.9958 3.85551 58.4254C4.14007 57.9958 4.42463 57.7112 4.71477 57.2816C4.85984 56.997 5.1444 56.7124 5.2839 56.5674C5.85859 55.8532 6.28266 55.139 6.85741 54.5699L6.85867 54.5689Z" fill="#667076"/>
<path d="M70.4208 7.14779L70.7054 7.43235C71.4196 8.00148 72.1338 8.71568 72.7028 9.2904C72.8479 9.43547 73.1325 9.72003 73.2719 9.85953C73.7016 10.2892 74.1312 10.7188 74.5553 11.2879C74.8398 11.5725 74.9849 11.857 75.2695 12.1472C75.6991 12.5768 75.9837 13.0064 76.4133 13.4305C76.6979 13.7151 76.8429 13.9996 77.1275 14.2898C77.4121 14.7194 77.8417 15.149 78.1262 15.7182C78.2713 16.0027 78.5559 16.2873 78.6954 16.5774C78.9799 17.007 79.2645 17.5762 79.5546 18.0058C79.6997 18.2904 79.9843 18.5749 80.1238 18.8651C80.4083 19.4342 80.6929 19.8638 80.983 20.4386C81.1281 20.7231 81.2676 21.0077 81.4127 21.2978C81.6972 22.012 82.1269 22.7262 82.4114 23.4404C82.4114 23.5855 82.5565 23.725 82.5565 23.8701C82.841 24.7293 83.2707 25.583 83.5552 26.4423C83.7003 26.7269 83.7003 26.8719 83.8398 27.1565C83.9849 27.8707 84.2694 28.4398 84.4089 29.1539C84.554 29.4385 84.554 29.8681 84.6935 30.1527C84.8386 30.7218 84.9781 31.2965 85.1231 31.8656C85.2682 32.1502 85.2682 32.5798 85.2682 33.0095C85.4133 33.5786 85.4133 34.1533 85.5528 34.7224C85.5528 35.152 85.6978 35.4366 85.6978 35.8662C85.6978 36.4353 85.8429 37.01 85.8429 37.5791C85.8429 38.0088 85.8429 38.2933 85.988 38.723V39.1526H86.4176C86.8472 39.1526 87.1318 39.1526 87.5614 39.2977C88.1305 39.2977 88.7052 39.4427 89.2743 39.4427C89.704 39.4427 89.9885 39.5878 90.4182 39.5878C90.9873 39.7329 91.562 39.7329 92.1311 39.8723C92.5607 39.8723 92.8453 40.0174 93.2749 40.1569C93.844 40.302 94.4187 40.4415 94.9878 40.5865C95.2724 40.7316 95.702 40.7316 95.9866 40.8711C96.5557 41.0162 97.2699 41.3007 97.8446 41.4402C98.1292 41.5853 98.4138 41.5853 98.5588 41.7248C99.4181 42.0094 100.272 42.2939 101.131 42.7236C101.276 42.7236 101.416 42.8686 101.7 43.0081C102.414 43.2927 102.984 43.5772 103.698 43.8674C103.982 44.0124 104.267 44.1519 104.557 44.297C105.126 44.5816 105.556 44.8661 106.13 45.1563C106.415 45.3013 106.7 45.5859 107.129 45.7254C107.559 46.01 108.128 46.2945 108.558 46.5847C108.842 46.7297 109.127 47.0143 109.556 47.1538C109.986 47.4384 110.416 47.7229 110.84 48.1525C111.124 48.4371 111.409 48.5822 111.699 48.8667C112.129 49.1513 112.558 49.5809 112.982 50.0106C113.267 50.2951 113.551 50.4402 113.842 50.7248C114.271 51.1544 114.84 51.584 115.27 52.0081C115.415 52.1532 115.7 52.4377 115.839 52.5772C116.553 53.2914 117.122 53.8605 117.697 54.5747C117.842 54.7197 117.842 54.7197 117.842 54.8592C118.411 55.4284 118.841 56.1426 119.416 56.7173C119.561 57.0018 119.845 57.2864 119.985 57.4315C120.269 57.8611 120.554 58.1457 120.844 58.5753C123.416 53.1463 124.7 47.2933 124.7 41.2889C124.7 18.719 106.415 0.434164 83.8448 0.434164C77.9917 0.289097 72.1331 1.57242 66.7041 4.14469C67.1337 4.42925 67.4183 4.71382 67.8479 5.00395C68.1325 5.14902 68.4171 5.43358 68.7072 5.57308C69.2763 6.00271 69.8454 6.57184 70.4201 7.14659L70.4208 7.14779Z" fill="#667076"/>
<path d="M44.5651 39.1408C45.1342 39.1408 45.7089 39.2859 46.278 39.2859C46.7077 39.2859 46.9922 39.4309 47.4218 39.4309C47.991 39.576 48.5657 39.576 49.1348 39.7155C49.4193 39.7155 49.849 39.8606 50.1335 39.8606C50.7027 40.0056 51.2774 40.1451 51.8465 40.2902C52.131 40.4353 52.4156 40.4353 52.7057 40.5747C53.565 40.8593 54.2792 41.0044 54.9934 41.2889C55.1385 41.2889 55.1385 41.2889 55.278 41.434C56.1372 41.7186 56.9909 42.0031 57.8502 42.4328C58.1348 42.5778 58.4194 42.7173 58.7095 42.7173C59.2786 43.0019 59.8533 43.2865 60.4224 43.5766C60.707 43.7217 60.9915 43.8612 61.4212 44.0062C61.7057 44.1513 61.9903 44.2908 62.2804 44.4359C62.565 44.2908 62.8496 44.1513 63.1397 44.0062C63.4243 43.8612 63.7088 43.7217 64.1385 43.5766C64.7076 43.292 65.2823 43.0075 65.8514 42.7173C66.1359 42.5723 66.4205 42.4328 66.7106 42.4328C67.5699 42.1482 68.4236 41.7186 69.2829 41.434C69.428 41.434 69.428 41.434 69.5675 41.2889C70.2816 41.0044 71.141 40.8593 71.8552 40.5747C72.1397 40.4297 72.4243 40.4297 72.7144 40.2902C73.2835 40.1451 73.8582 40.0056 74.4273 39.8606C74.7119 39.7155 75.1415 39.7155 75.4261 39.7155C75.9952 39.5704 76.5699 39.5704 77.139 39.4309C77.5687 39.4309 77.8532 39.2859 78.2829 39.2859C78.852 39.2859 79.4267 39.1408 79.9958 39.1408C80.2803 39.1408 80.71 39.1408 80.9945 38.9957H81.4242V38.7112C81.4242 38.2815 81.4242 37.997 81.2791 37.5673C81.2791 37.1377 81.134 36.5686 81.134 36.1389C81.134 35.7093 80.989 35.4248 80.989 34.9951C80.8439 34.5655 80.8439 33.9964 80.7044 33.5667C80.7044 33.1371 80.5593 32.8525 80.4198 32.4229C80.2748 31.9933 80.2748 31.4242 80.1353 30.9945C79.9902 30.5649 79.9902 30.2803 79.8507 29.8507C79.7056 29.4211 79.5661 28.9914 79.4211 28.4223C79.276 28.1377 79.1365 27.7081 78.9915 27.4235C78.8464 26.9939 78.7069 26.5643 78.4223 25.9952C78.2773 25.7106 78.1378 25.281 77.9927 24.9964C77.8476 24.5668 77.5631 24.1371 77.4236 23.7131C77.2785 23.4285 77.139 22.9989 76.9939 22.7143C76.7094 22.2847 76.5643 21.8551 76.2797 21.2859C76.1347 21.0014 75.9952 20.7168 75.8501 20.4267C75.5655 19.997 75.281 19.4279 74.9908 18.9983C74.8458 18.7137 74.7063 18.5686 74.5612 18.2841C74.1316 17.5699 73.5625 16.8557 73.1328 16.2866C72.5637 15.5724 72.1341 15.0033 71.5593 14.2892L70.9902 13.72C70.5606 13.2904 70.276 12.8608 69.8464 12.4367L69.1322 11.7225C68.7025 11.2929 68.418 11.0083 67.9883 10.7238C67.7038 10.4392 67.4192 10.2941 67.1291 10.0096C66.6994 9.72501 66.4149 9.29538 65.9852 9.01081C65.7007 8.72625 65.4161 8.58118 65.126 8.29662C64.6964 8.01205 64.2667 7.72749 63.9822 7.43736C63.6976 7.15279 63.413 7.00773 62.9834 6.86823C62.6988 6.72316 62.5538 6.58367 62.2692 6.4386C61.9846 6.58367 61.8396 6.72316 61.555 6.86823C61.2705 7.0133 60.8408 7.29786 60.5563 7.43736C60.1266 7.72192 59.697 8.00648 59.4124 8.29662C59.1279 8.58118 58.8433 8.72625 58.5532 9.01081C58.1235 9.29538 57.839 9.57994 57.4093 10.0096C57.1248 10.2941 56.8402 10.4392 56.5501 10.7238C56.1205 11.0083 55.8359 11.438 55.4063 11.7225L54.6921 12.4367C54.2624 12.8663 53.8328 13.296 53.5482 13.72C53.4032 13.8651 53.1186 14.1497 52.9791 14.2892C52.41 15.0034 51.8353 15.5725 51.4056 16.2866C50.8365 17.0008 50.4068 17.715 49.9772 18.2841C49.8321 18.5686 49.6926 18.7137 49.5476 18.9983C49.263 19.4279 48.9785 19.997 48.6883 20.4267C48.5433 20.7112 48.4038 20.9958 48.2587 21.2859C47.9741 21.7156 47.6896 22.1452 47.5445 22.7143C47.3994 22.9989 47.2599 23.2834 47.1149 23.7131C46.9698 24.1427 46.6852 24.5723 46.5457 24.9964C46.4007 25.281 46.2612 25.7106 46.1161 25.9952C45.971 26.4248 45.8315 26.8544 45.547 27.4235C45.4019 27.7081 45.2624 28.1377 45.1173 28.4223C44.9723 28.8519 44.8328 29.2816 44.6877 29.8507C44.5426 30.2803 44.5426 30.5649 44.4032 30.9945C44.2581 31.4242 44.1186 31.9933 44.1186 32.4229C43.9735 32.8525 43.9735 33.1371 43.834 33.5667C43.689 33.9964 43.689 34.5655 43.5495 34.9951C43.5495 35.4248 43.4044 35.7093 43.4044 36.1389C43.4044 36.5686 43.2593 37.1377 43.2593 37.5673C43.2593 37.997 43.2593 38.2815 43.1143 38.7112V38.9957H43.5439C43.8508 39.1408 44.2804 39.1408 44.565 39.1408H44.5651Z" fill="#667076"/>
<path d="M51.4238 16.4323C51.993 15.7181 52.4226 15.149 52.9973 14.4348C52.5677 15.0039 51.993 15.7181 51.4238 16.4323Z" fill="#667076"/>
<path d="M49.9941 18.4291C50.4238 17.7149 50.9929 17.0007 51.4225 16.4316C50.9929 17.0008 50.4238 17.715 49.9941 18.4291Z" fill="#667076"/>
<path d="M59.5625 8.43049C59.9921 8.14593 60.4218 7.86136 60.7063 7.57123C60.4218 7.86136 59.9921 8.14593 59.5625 8.43049Z" fill="#667076"/>
<path d="M62.4211 6.43359C62.1362 6.57884 61.991 6.7185 61.7061 6.86375C61.991 6.7185 62.1362 6.57326 62.4211 6.43359Z" fill="#667076"/>
<path d="M57.5664 10.0045C57.996 9.71993 58.2806 9.2903 58.7102 9.00574C58.2806 9.4298 57.851 9.71435 57.5664 10.0045Z" fill="#667076"/>
<path d="M53.7119 13.7141C54.1415 13.2845 54.4261 12.8548 54.8557 12.4308C54.4261 12.8604 53.9965 13.2845 53.7119 13.7141Z" fill="#667076"/>
<path d="M55.5615 11.8557C55.9912 11.4261 56.2757 11.1415 56.7054 10.8569C56.2757 11.002 55.9912 11.4316 55.5615 11.8557Z" fill="#667076"/>
<path d="M47.4219 22.86C47.7064 22.4304 47.8515 22.0008 48.1361 21.4316C47.8515 22.0008 47.7064 22.4304 47.4219 22.86Z" fill="#667076"/>
<path d="M43.2832 37.7124C43.2832 37.2828 43.4283 36.7137 43.4283 36.2841C43.2832 36.7137 43.2832 37.1433 43.2832 37.7124Z" fill="#667076"/>
<path d="M43.5674 35.0013C43.7124 34.5717 43.7124 34.0026 43.8519 33.5729C43.7125 34.1421 43.5674 34.5717 43.5674 35.0013Z" fill="#667076"/>
<path d="M48.7119 20.5718C48.9965 20.1421 49.281 19.573 49.5712 19.1434C49.281 19.573 48.9965 20.1421 48.7119 20.5718Z" fill="#667076"/>
<path d="M43.9971 32.4288C44.1421 31.9991 44.1421 31.43 44.2816 31.0004C44.2816 31.5695 44.1366 31.9991 43.9971 32.4288Z" fill="#667076"/>
<path d="M46.2783 25.1412C46.4234 24.7115 46.708 24.2819 46.8474 23.8578C46.708 24.2875 46.5685 24.7115 46.2783 25.1412Z" fill="#667076"/>
<path d="M45.4258 27.568C45.5708 27.1384 45.7103 26.7088 45.9949 26.1396C45.7103 26.7143 45.5653 27.144 45.4258 27.568Z" fill="#667076"/>
<path d="M44.5645 30.002C44.7095 29.5724 44.849 29.1427 44.9941 28.5736C44.849 29.1427 44.7095 29.5724 44.5645 30.002Z" fill="#667076"/>
<path d="M80.5596 31.1391C80.7046 31.5687 80.8441 32.1379 80.8441 32.5675C80.7046 31.9984 80.5596 31.5687 80.5596 31.1391Z" fill="#667076"/>
<path d="M79.8447 28.5736C79.9898 29.0032 80.1293 29.4329 80.2744 30.002C80.1349 29.5724 79.9898 29.1427 79.8447 28.5736Z" fill="#667076"/>
<path d="M78.8457 26.1396C78.9908 26.5693 79.1303 26.9989 79.4148 27.568C79.2753 27.144 79.1303 26.7143 78.8457 26.1396Z" fill="#667076"/>
<path d="M81.1348 33.5729C81.2798 34.0026 81.2798 34.5717 81.4193 35.0013C81.2743 34.5717 81.1348 34.1421 81.1348 33.5729Z" fill="#667076"/>
<path d="M81.4199 36.1384C81.4199 36.568 81.565 37.1371 81.565 37.5668C81.565 37.1427 81.565 36.7131 81.4199 36.1384Z" fill="#667076"/>
<path d="M77.8486 23.8585C77.9937 24.2882 78.2783 24.7178 78.4178 25.1418C78.2783 24.7122 78.1332 24.2882 77.8486 23.8585Z" fill="#667076"/>
<path d="M63.135 6.85691C62.8501 6.71167 62.7048 6.572 62.4199 6.42676C62.7048 6.572 62.8501 6.71725 63.135 6.85691Z" fill="#667076"/>
<path d="M66.1367 8.99902C66.5663 9.28359 66.8509 9.56815 67.2805 9.99778C66.9904 9.71322 66.5663 9.42865 66.1367 8.99902Z" fill="#667076"/>
<path d="M63.9941 7.57062C64.4238 7.85518 64.8534 8.13975 65.138 8.42988C64.8478 8.14532 64.4238 7.86075 63.9941 7.57062Z" fill="#667076"/>
<path d="M68.1338 10.7188C68.5634 11.0033 68.848 11.4329 69.2776 11.7175C68.848 11.4329 68.5634 11.0033 68.1338 10.7188Z" fill="#667076"/>
<path d="M76.7031 21.4316C76.9877 21.8613 77.2723 22.2909 77.4173 22.86C77.1328 22.4304 76.9877 22.0008 76.7031 21.4316Z" fill="#667076"/>
<path d="M71.7041 14.4283C72.2732 15.1425 72.8479 15.7116 73.2776 16.4257C72.848 15.7171 72.2789 15.0029 71.7041 14.4283Z" fill="#667076"/>
<path d="M75.2744 19.1434C75.559 19.573 75.8435 20.1421 76.1337 20.5718C75.8491 20.1421 75.559 19.573 75.2744 19.1434Z" fill="#667076"/>
<path d="M73.417 16.4323C73.9861 17.1465 74.4158 17.8607 74.8454 18.4298C74.4213 17.7156 73.8466 17.0014 73.417 16.4323Z" fill="#667076"/>
<path d="M69.9932 12.4314C70.4228 12.861 70.8524 13.2907 71.137 13.7147C70.8524 13.2851 70.4228 12.861 69.9932 12.4314Z" fill="#667076"/>
<path d="M54.2798 118.271C54.1347 118.126 54.1347 118.126 53.9952 118.126C53.281 117.557 52.5668 116.842 51.9978 116.268C51.8527 116.123 51.5681 115.838 51.4286 115.553C50.999 115.124 50.5694 114.694 50.1453 114.125C49.8608 113.84 49.7157 113.556 49.4311 113.266C49.0015 112.836 48.7169 112.406 48.2873 111.982C48.0027 111.698 47.8577 111.413 47.5731 111.123C47.2886 110.694 46.8589 110.264 46.5744 109.84C46.2898 109.555 46.1447 109.271 46.0052 108.841C45.7207 108.411 45.4361 107.842 45.146 107.413C45.0009 107.128 44.7163 106.844 44.5768 106.414C44.2923 105.845 44.0077 105.415 43.7176 104.84C43.5725 104.556 43.433 104.271 43.2879 103.981C43.0034 103.267 42.7188 102.698 42.2892 101.984C42.2892 101.839 42.1441 101.699 42.1441 101.554C41.8596 100.695 41.4299 99.8411 41.1454 98.9818C41.0003 98.6973 41.0003 98.5522 40.8608 98.2676C40.7157 97.6985 40.4312 96.9843 40.2917 96.4096C40.1466 96.125 40.1466 95.6954 40.0071 95.4108C39.862 94.8417 39.7225 94.267 39.5775 93.6979C39.4324 93.2683 39.4324 92.9837 39.4324 92.5541C39.4268 91.8455 39.2818 91.2763 39.2818 90.7072C39.2818 90.2775 39.1367 89.993 39.1367 89.5633C39.1367 88.9942 38.9916 88.4195 38.9916 87.8504C38.9916 87.4208 38.9916 87.1362 38.8466 86.7066V86.277H38.4169C37.9873 86.277 37.7027 86.277 37.2731 86.1319C36.704 86.1319 36.1293 85.9868 35.5602 85.9868C35.1305 85.9868 34.846 85.8418 34.4164 85.8418C33.8472 85.6967 33.2725 85.6967 32.7034 85.5572C32.2738 85.5572 31.9892 85.4121 31.5596 85.2726C30.9905 85.1276 30.4158 84.9881 29.8467 84.843C29.5621 84.6979 29.1325 84.6979 28.8479 84.5584C28.2788 84.4134 27.5646 84.1288 26.9899 83.9893C26.7053 83.8442 26.4207 83.8442 26.2757 83.7048C25.4164 83.4202 24.5628 83.1356 23.7034 82.706C23.5584 82.706 23.4189 82.5609 23.1343 82.4214C22.4201 82.1369 21.851 81.8523 21.1368 81.5622C20.8523 81.4171 20.5677 81.2776 20.2776 81.1325C19.7085 80.848 19.2788 80.5634 18.7041 80.2733C18.4195 80.1282 18.1349 79.8436 17.7053 79.7042C17.2757 79.4196 16.7066 79.135 16.2769 78.8449C15.9924 78.6998 15.7078 78.4153 15.2782 78.2758C14.8485 77.9912 14.4189 77.7066 13.9948 77.277C13.7103 76.9924 13.4257 76.8474 13.1356 76.5628C12.706 76.2782 12.2763 75.8486 11.8523 75.419C11.5677 75.1344 11.2831 74.9894 10.993 74.7048C10.5634 74.2752 9.99424 73.8455 9.56461 73.4215C9.41954 73.2764 9.13498 72.9918 8.99549 72.8523C8.28129 72.1381 7.71216 71.569 7.13744 70.8549C6.99237 70.7098 6.99237 70.7098 6.99237 70.5703C6.42324 70.0012 5.99361 69.287 5.41886 68.7123C5.27379 68.4277 4.98923 68.1431 4.84973 67.9981C4.56517 67.5684 4.2806 67.2839 3.99047 66.8542C1.28438 72.4227 0.000976562 78.2758 0.000976562 84.1349C0.000976562 106.705 18.2858 124.99 40.8558 124.99C46.8539 124.99 52.7125 123.706 58.1421 121.134C57.7125 120.85 57.4279 120.565 56.9983 120.275C56.7137 120.13 56.4292 119.845 56.2841 119.706C55.5643 119.276 54.9952 118.847 54.2811 118.272L54.2798 118.271Z" fill="#667076"/>
<path d="M38.9971 80.5641C38.9971 79.9949 39.1421 79.4202 39.1421 78.8511C39.1421 78.4215 39.2872 78.1369 39.2872 77.7073C39.4323 77.1382 39.4323 76.5635 39.5718 75.9944C39.5718 75.7098 39.7168 75.2802 39.7168 74.9956C39.8619 74.4265 40.0014 73.8518 40.1465 73.2827C40.2915 72.9981 40.2915 72.7136 40.431 72.2839C40.5761 71.5697 40.8607 70.7104 41.1452 69.9962C41.1452 69.8512 41.2903 69.7117 41.2903 69.5666C41.5748 68.7073 41.8594 67.8537 42.289 66.9944C42.4341 66.7098 42.5736 66.4252 42.7187 66.1351C43.0032 65.566 43.2878 64.9913 43.4329 64.4222C43.5779 64.1376 43.7174 63.853 43.8625 63.4234C44.0076 63.1388 44.1471 62.8543 44.2921 62.5642C44.1471 62.2796 44.0076 61.995 43.8625 61.7049C43.7174 61.4203 43.5779 61.1358 43.4329 60.7061C43.1483 60.137 42.8637 59.5623 42.7187 58.9932C42.5736 58.7086 42.4341 58.4241 42.289 58.1339C42.0045 57.2747 41.5748 56.421 41.2903 55.5617C41.2903 55.4166 41.1452 55.2771 41.1452 55.1321C40.8607 54.4179 40.7156 53.5586 40.431 52.8444C40.286 52.5598 40.2859 52.2752 40.1465 51.8456C40.0014 51.2765 39.8619 50.7018 39.7168 50.1327C39.5718 49.8481 39.5718 49.4185 39.5718 49.1339C39.4267 48.5648 39.4267 47.9901 39.2872 47.421C39.2872 46.9914 39.1421 46.7068 39.1421 46.2772C39.1421 45.708 38.9971 45.1334 38.9971 44.5643C38.9971 44.2797 38.9971 43.8501 38.852 43.5655V43.1359H38.5674C38.1378 43.1359 37.8532 43.1359 37.4236 43.2809C36.994 43.2809 36.4248 43.426 35.9952 43.426C35.5656 43.426 35.281 43.5711 34.8514 43.5711C34.4218 43.7161 33.8526 43.7161 33.423 43.8556C32.9934 43.8556 32.7088 44.0007 32.2792 44.1402C31.8495 44.2853 31.2804 44.2853 30.8508 44.4248C30.4212 44.5698 30.1366 44.5698 29.707 44.7093C29.2773 44.8544 28.8477 44.9939 28.2786 45.139C27.994 45.284 27.5644 45.4235 27.2798 45.4235C26.8502 45.5686 26.4206 45.7081 25.8514 45.9926C25.5669 46.1377 25.1372 46.2772 24.8527 46.4223C24.423 46.5673 23.9934 46.8519 23.4243 46.9914C23.1397 47.1365 22.8552 47.276 22.4255 47.421C21.9959 47.7056 21.4268 47.8507 20.9971 48.1352C20.7126 48.2803 20.428 48.4198 20.1379 48.5649C19.5687 48.8494 19.1391 49.134 18.7095 49.4241C18.4249 49.5692 18.2799 49.7087 17.9953 49.8537C16.5669 50.8525 15.2836 51.8512 13.9947 52.9951C13.8496 53.1401 13.565 53.4247 13.4255 53.5642C12.9959 53.9938 12.5663 54.2784 12.1422 54.708C11.8576 54.9926 11.7126 55.1376 11.428 55.4222L10.2842 56.566C9.99963 56.8506 9.85456 57.1352 9.57 57.4253C9.28543 57.8549 8.8558 58.1395 8.57124 58.5691C8.28667 58.8537 8.14161 59.1382 7.85704 59.4284C7.57248 59.858 7.28792 60.2876 6.99778 60.5722C6.71322 60.8568 6.56815 61.1413 6.42865 61.571C6.28359 61.8555 6.14409 62.0006 5.99902 62.2852C6.14409 62.5697 6.28359 62.7148 6.42865 62.9994C6.57372 63.2839 6.85828 63.5685 6.99778 63.9981C7.28234 64.4277 7.56691 64.8574 7.85704 65.1419C8.14161 65.4265 8.28667 65.7111 8.57124 66.0012C8.8558 66.4308 9.14036 66.7154 9.57 67.145C9.85456 67.4296 9.99963 67.7141 10.2842 68.0043C10.5688 68.4339 10.9984 68.7185 11.428 69.1481C11.7126 69.4327 11.8576 69.5777 12.1422 69.8623C12.5718 70.2919 13.0015 70.7216 13.4255 71.0061L13.9947 71.5753C15.278 72.7191 16.7063 73.7178 17.9953 74.7166C18.2799 74.8616 18.4249 75.0011 18.7095 75.1462C19.1391 75.4308 19.7082 75.7153 20.1379 76.0055C20.4224 76.1505 20.707 76.29 20.9971 76.4351C21.4268 76.7197 21.8564 77.0042 22.4255 77.1493C22.7101 77.2944 22.9947 77.4339 23.4243 77.5789C23.8539 77.8635 24.2835 78.0085 24.8527 78.148C25.1372 78.2931 25.5669 78.4326 25.8514 78.5777C26.2811 78.7227 26.7107 78.8622 27.2798 79.1468C27.5644 79.2919 27.994 79.4314 28.2786 79.4314C28.7082 79.5764 29.1378 79.7159 29.707 79.861C30.1366 80.0061 30.4212 80.0061 30.8508 80.1456C31.2804 80.2906 31.8495 80.4301 32.2792 80.4301C32.7088 80.5752 32.9934 80.5752 33.423 80.7147C33.8526 80.8598 34.4218 80.8598 34.8514 80.9993C35.281 80.9993 35.5656 81.1443 35.9952 81.1443C36.4248 81.1443 36.994 81.2894 37.4236 81.2894C37.8532 81.2894 38.1378 81.2894 38.5674 81.4345H38.852V81.0048C38.852 81.2782 38.852 80.8486 38.9971 80.5641Z" fill="#667076"/>
<path d="M33.2842 43.9944C33.7138 43.8493 34.2829 43.8493 34.7126 43.7098C34.2829 43.8549 33.8533 43.9944 33.2842 43.9944Z" fill="#667076"/>
<path d="M35.8564 43.5717C36.2861 43.5717 36.8552 43.4266 37.2848 43.4266C36.8552 43.5717 36.4256 43.5717 35.8564 43.5717Z" fill="#667076"/>
<path d="M30.8564 44.5701C31.2861 44.4251 31.8552 44.2856 32.2848 44.2856C31.7101 44.4251 31.2805 44.4251 30.8564 44.5701Z" fill="#667076"/>
<path d="M6.57469 61.9951C6.42944 62.28 6.28978 62.4252 6.14453 62.7101C6.28419 62.4252 6.42944 62.28 6.57469 61.9951Z" fill="#667076"/>
<path d="M28.2852 45.2844C28.7148 45.1393 29.1444 44.9998 29.7135 44.8547C29.2839 44.9998 28.8543 45.1393 28.2852 45.2844Z" fill="#667076"/>
<path d="M18.8535 49.8538C19.2831 49.5692 19.8523 49.2846 20.2819 48.9945C19.8523 49.1396 19.2831 49.5692 18.8535 49.8538Z" fill="#667076"/>
<path d="M8.85547 58.9926C9.14003 58.563 9.4246 58.2784 9.85423 57.8488C9.43017 58.139 9.14003 58.5686 8.85547 58.9926Z" fill="#667076"/>
<path d="M7.28809 60.9966C7.57265 60.567 7.85721 60.1373 8.14735 59.8528C7.85721 60.2824 7.57265 60.712 7.28809 60.9966Z" fill="#667076"/>
<path d="M12.2881 55.1374C12.7177 54.7077 13.1473 54.2781 13.5714 53.9935C13.1418 54.2837 12.7121 54.7077 12.2881 55.1374Z" fill="#667076"/>
<path d="M23.5693 47.2812C23.999 46.9966 24.4286 46.8515 24.9977 46.712C24.4286 46.8515 23.999 46.9966 23.5693 47.2812Z" fill="#667076"/>
<path d="M14.1387 53.4247C15.422 52.2809 16.8503 51.2821 18.1393 50.2834C16.7109 51.1371 15.4277 52.2808 14.1387 53.4247Z" fill="#667076"/>
<path d="M25.8584 46.137C26.288 45.9919 26.7177 45.8524 27.2868 45.5679C26.8572 45.8524 26.4275 45.9975 25.8584 46.137Z" fill="#667076"/>
<path d="M21.1426 48.4254C21.5722 48.1408 22.0018 47.8562 22.571 47.7112C22.1413 47.8562 21.7117 48.1408 21.1426 48.4254Z" fill="#667076"/>
<path d="M10.4297 56.9958C10.7143 56.5661 11.1439 56.2816 11.5735 55.8519C11.1439 56.1365 10.8593 56.5661 10.4297 56.9958Z" fill="#667076"/>
<path d="M20.2819 76.4246C19.7128 76.1401 19.2831 75.8555 18.8535 75.5654C19.2831 75.8499 19.8523 76.1345 20.2819 76.4246Z" fill="#667076"/>
<path d="M11.5735 69.5669L10.4297 68.4231L11.5735 69.5669Z" fill="#667076"/>
<path d="M37.4235 81.8468C36.9939 81.8468 36.4247 81.7018 35.9951 81.7018C36.4247 81.8468 36.8544 81.8468 37.4235 81.8468Z" fill="#667076"/>
<path d="M8.14051 65.566C7.85595 65.1364 7.57138 64.7067 7.28125 64.4222C7.57138 64.7067 7.85595 65.1364 8.14051 65.566Z" fill="#667076"/>
<path d="M27.2868 79.7041C26.8572 79.5591 26.4275 79.4196 25.8584 79.135C26.4275 79.2801 26.8572 79.5646 27.2868 79.7041Z" fill="#667076"/>
<path d="M24.8512 78.7057C24.4216 78.5607 23.992 78.2761 23.4229 78.1366C23.9975 78.2761 24.4272 78.5662 24.8512 78.7057Z" fill="#667076"/>
<path d="M22.571 77.7074C22.1413 77.4228 21.5722 77.2777 21.1426 76.9932C21.7117 77.1382 22.1413 77.4228 22.571 77.7074Z" fill="#667076"/>
<path d="M9.71555 67.563C9.43099 67.1333 9.00136 66.8488 8.7168 66.4191C9.14086 66.8488 9.43099 67.1389 9.71555 67.563Z" fill="#667076"/>
<path d="M13.5714 71.4253C13.1418 70.9957 12.7121 70.5661 12.2881 70.2815C12.7121 70.7111 13.1418 70.9957 13.5714 71.4253Z" fill="#667076"/>
<path d="M6.14453 62.7093C6.28978 62.9942 6.42944 63.1394 6.57469 63.4244C6.42944 63.1394 6.2842 62.8545 6.14453 62.7093Z" fill="#667076"/>
<path d="M32.2848 81.1326C31.8552 80.9875 31.2861 80.9875 30.8564 80.848C31.2805 80.848 31.7101 80.9931 32.2848 81.1326Z" fill="#667076"/>
<path d="M29.7135 80.4185C29.2839 80.2734 28.7148 80.1339 28.2852 79.9888C28.8543 80.1339 29.2839 80.279 29.7135 80.4185Z" fill="#667076"/>
<path d="M34.8512 81.5626C34.4216 81.4175 33.8525 81.4175 33.4229 81.278C33.8525 81.4231 34.2821 81.5626 34.8512 81.5626Z" fill="#667076"/>
<path d="M18.1393 75.1348C16.7109 74.136 15.4277 73.1373 14.1387 71.9935C15.4276 73.1373 16.7109 74.1361 18.1393 75.1348Z" fill="#667076"/>
<path d="M48.9969 55.713C49.2815 55.4284 49.4266 55.1439 49.7111 54.8537C50.4253 53.9945 51.2846 53.1408 52.1382 52.2815C52.9975 51.4222 53.8512 50.708 54.7105 49.8544C54.995 49.5698 55.2796 49.4247 55.5697 49.1402C56.2839 48.571 56.9981 47.9963 57.7123 47.4272C57.8574 47.2822 57.9969 47.1427 58.2815 46.9976C57.8518 46.8525 57.4222 46.568 56.9981 46.4285C56.8531 46.4285 56.7136 46.2834 56.7136 46.2834C55.9994 45.9989 55.2852 45.7143 54.4259 45.4242C54.2808 45.4242 53.9962 45.2791 53.8567 45.2791C53.2876 45.134 52.7129 44.8495 52.1438 44.71C51.8593 44.71 51.7142 44.5649 51.4296 44.5649C50.7154 44.4198 49.8561 44.1353 49.1419 43.9958H48.9968C48.2827 43.8507 47.4233 43.7112 46.7091 43.5661C46.4246 43.5661 46.2795 43.5661 45.9949 43.4211C45.4258 43.276 44.8511 43.276 44.1369 43.276H43.5678H43.2832V43.5606V44.1297C43.2832 44.6988 43.4283 45.413 43.4283 45.9877C43.4283 46.2723 43.4283 46.4174 43.5733 46.7019C43.7184 47.4161 43.8579 48.2754 44.003 48.9896C44.148 49.7038 44.2875 50.5632 44.5721 51.2773C44.5721 51.5619 44.7172 51.707 44.7172 51.9915C44.8622 52.5607 45.0017 53.1354 45.2863 53.7045C45.2863 53.8495 45.4314 54.1341 45.4314 54.2736C45.7159 54.9878 46.0005 55.702 46.2906 56.5613C46.2906 56.7064 46.4357 56.8459 46.4357 56.9909C46.5808 57.4206 46.8653 57.8502 47.0048 58.2743L47.4344 57.8446C47.8529 57.1416 48.422 56.4274 48.9968 55.7132L48.9969 55.713Z" fill="#667076"/>
<path d="M58.1349 47.1427C57.7053 46.9976 57.2756 46.713 56.8516 46.5735C57.2812 46.713 57.7053 46.9976 58.1349 47.1427Z" fill="#667076"/>
<path d="M43.9971 43.426C44.5662 43.426 45.1409 43.5711 45.8551 43.5711C45.2804 43.5711 44.5662 43.426 43.9971 43.426Z" fill="#667076"/>
<path d="M46.5693 43.7102C47.2835 43.8553 48.1429 43.9948 48.857 44.1398C47.9978 43.9948 47.2835 43.8553 46.5693 43.7102Z" fill="#667076"/>
<path d="M51.8525 44.8544C52.4217 44.9994 52.9964 45.1389 53.5655 45.4235C52.9963 45.1389 52.4216 44.9994 51.8525 44.8544Z" fill="#667076"/>
<path d="M48.8506 44.1403C49.5648 44.2853 50.4241 44.4248 51.1383 44.7094C50.4241 44.4248 49.7099 44.2853 48.8506 44.1403Z" fill="#667076"/>
<path d="M54.2803 45.5686C54.9945 45.8532 55.7087 46.1377 56.568 46.4279C55.7087 46.1377 54.9945 45.8532 54.2803 45.5686Z" fill="#667076"/>
<path d="M46.8543 58.4241C46.7092 57.9944 46.4247 57.5648 46.2852 57.1407C46.5697 57.5648 46.7092 57.9944 46.8543 58.4241Z" fill="#667076"/>
<path d="M45.1404 53.8547C44.9954 53.2856 44.7108 52.7109 44.5713 52.1418C44.7108 52.7109 44.8503 53.28 45.1404 53.8547Z" fill="#667076"/>
<path d="M44.4266 51.4278C44.2815 50.7136 43.9969 49.8543 43.8574 49.1401C43.9969 49.8543 44.1364 50.7136 44.4266 51.4278Z" fill="#667076"/>
<path d="M43.4214 46.137C43.2764 45.5679 43.2764 44.8537 43.2764 44.279C43.2819 44.8537 43.2819 45.4228 43.4214 46.137Z" fill="#667076"/>
<path d="M46.1395 56.7115C45.855 55.9973 45.5704 55.2831 45.2803 54.4238C45.5648 55.283 45.855 55.9973 46.1395 56.7115Z" fill="#667076"/>
<path d="M43.8515 49.1396C43.7064 48.4254 43.5669 47.5661 43.4219 46.8519C43.5669 47.5661 43.712 48.2803 43.8515 49.1396Z" fill="#667076"/>
<path d="M117.988 70.8496C117.988 70.9946 117.842 70.9946 117.842 71.1341C117.273 71.8483 116.559 72.5625 115.984 73.1316C115.839 73.2766 115.555 73.5612 115.415 73.7007C114.986 74.1303 114.556 74.56 113.987 74.984C113.702 75.2686 113.418 75.4137 113.128 75.6982C112.698 76.1278 112.268 76.4124 111.844 76.842C111.56 77.1266 111.275 77.2717 110.985 77.5562C110.555 77.8408 110.126 78.2704 109.702 78.555C109.417 78.8396 109.133 78.9846 108.703 79.1241C108.273 79.4087 107.704 79.6933 107.275 79.9834C106.99 80.1285 106.705 80.413 106.276 80.5525C105.707 80.8371 105.277 81.1216 104.702 81.4118C104.418 81.5568 104.133 81.6963 103.843 81.8414C103.129 82.126 102.56 82.4105 101.846 82.7007C101.701 82.8457 101.561 82.8457 101.276 82.9852C100.417 83.2698 99.5636 83.6994 98.7042 83.984C98.4197 84.1291 98.1351 84.1291 97.9901 84.2686C97.4209 84.4136 96.7067 84.6982 96.132 84.8377C95.8474 84.9828 95.4178 84.9828 95.1332 85.1222C94.5641 85.2673 93.9894 85.4068 93.4203 85.5519C92.8456 85.418 92.5611 85.563 92.1314 85.563C91.5623 85.7081 90.9876 85.7081 90.4185 85.8476C89.9889 85.8476 89.7043 85.9927 89.2747 85.9927C88.7056 85.9927 88.1309 86.1377 87.5618 86.1377C87.1321 86.1377 86.8476 86.1377 86.4179 86.2828H85.9883V86.7124C85.9883 87.1421 85.9883 87.4266 85.8432 87.8563C85.8432 88.4254 85.6982 89.0001 85.6982 89.5692C85.6982 89.9988 85.5531 90.2834 85.5531 90.713C85.408 91.2821 85.408 91.8568 85.2685 92.4259C85.2685 92.8556 85.1235 93.1401 85.1235 93.5698C84.9784 94.1389 84.8389 94.7136 84.6938 95.2827C84.5488 95.5672 84.5488 95.9969 84.4093 96.2814C84.2642 96.9956 83.9796 97.5648 83.8401 98.1395C83.6951 98.424 83.6951 98.5691 83.5556 98.8537C83.271 99.7129 82.9865 100.567 82.5568 101.426C82.5568 101.571 82.4118 101.71 82.4118 101.856C82.1272 102.57 81.8426 103.284 81.413 103.853C81.2679 104.138 81.1284 104.422 80.9834 104.712C80.6988 105.281 80.4142 105.711 80.1241 106.286C79.979 106.57 79.6945 106.855 79.555 107.285C79.2704 107.714 78.9859 108.283 78.6957 108.713C78.5507 108.997 78.2661 109.282 78.1266 109.712C77.842 110.141 77.5575 110.571 77.1278 110.995C76.8433 111.28 76.6982 111.564 76.4136 111.854C76.1291 112.284 75.6994 112.714 75.2698 113.138C74.9852 113.422 74.8402 113.707 74.5556 113.997C74.126 114.426 73.6964 114.856 73.2723 115.425C73.1272 115.71 72.8427 115.855 72.7032 116.139C71.989 116.854 71.4198 117.423 70.7057 117.997C70.5606 118.143 70.5606 118.143 70.4211 118.143C69.852 118.712 69.1378 119.141 68.5631 119.716C68.2785 119.861 67.994 120.146 67.8489 120.285C67.4193 120.57 67.1347 120.854 66.7051 121.144C72.1341 123.717 77.9871 125 83.9914 125C106.561 125 124.846 106.715 124.846 84.1452C124.846 78.1471 123.563 72.2884 120.991 66.8588C120.706 67.2885 120.422 67.573 120.131 68.0027C119.986 68.2872 119.702 68.5718 119.562 68.7168C118.988 69.565 118.558 70.1341 117.989 70.8483L117.988 70.8496Z" fill="#667076"/>
<path d="M85.8497 44.8544C85.8497 45.4235 85.7047 45.9982 85.7047 46.5673C85.7047 46.997 85.5596 47.2815 85.5596 47.7112C85.4146 48.2803 85.4146 48.855 85.2751 49.4241C85.2751 49.7086 85.13 50.1383 85.13 50.4228C84.9849 50.992 84.8454 51.5667 84.7004 52.1358C84.5553 52.4203 84.5553 52.7049 84.4158 53.1345C84.2707 53.8487 83.9862 54.708 83.7016 55.4222C83.7016 55.5673 83.5565 55.7068 83.5565 55.8519C83.272 56.7111 82.9874 57.5648 82.5578 58.4241C82.4127 58.7087 82.2732 58.9932 82.1281 59.2834C81.8436 59.8525 81.559 60.4272 81.4139 60.9963C81.2689 61.2809 81.1294 61.5654 80.9843 61.9951C80.8392 62.2796 80.6998 62.5642 80.5547 62.8543C80.6998 63.1389 80.8392 63.4234 80.9843 63.7136C81.1294 63.9981 81.2689 64.2827 81.4139 64.7123C81.6985 65.2815 81.9831 65.8562 82.1281 66.4253C82.2732 66.7098 82.4127 66.9944 82.5578 67.2845C82.8423 68.1438 83.272 68.9974 83.5565 69.8568C83.5565 70.0018 83.7016 70.1413 83.7016 70.2864C83.9862 71.0006 84.1312 71.8599 84.4158 72.5741C84.5609 72.8587 84.5609 73.1432 84.7004 73.5729C84.8454 74.142 84.9849 74.7167 85.13 75.2858C85.2751 75.5703 85.2751 76 85.2751 76.2845C85.4201 76.8537 85.4201 77.4284 85.5596 77.9975C85.5596 78.4271 85.7047 78.7117 85.7047 79.1413C85.7047 79.7104 85.8497 80.2851 85.8497 80.8542C85.8497 81.1388 85.8498 81.5684 85.9948 81.853V82.2826H86.2794C86.709 82.2826 86.9936 82.2826 87.4232 82.1375C87.8528 82.1375 88.422 81.9925 88.8516 81.9925C89.2812 81.9925 89.5658 81.8474 89.9954 81.8474C90.4251 81.7023 90.9942 81.7023 91.4238 81.5628C91.8534 81.5628 92.138 81.4178 92.5676 81.2783C92.9973 81.1332 93.5664 81.1332 93.996 80.9937C94.4257 80.8486 94.7102 80.8486 95.1399 80.7091C95.5695 80.5641 96.1386 80.4246 96.5682 80.2795C96.8528 80.1344 97.2824 79.995 97.567 79.995C97.9966 79.8499 98.4263 79.7104 98.9954 79.4258C99.28 79.2808 99.7096 79.1413 99.9941 78.9962C100.424 78.8511 100.853 78.5666 101.423 78.4271C101.707 78.282 101.992 78.1425 102.421 77.9974C102.851 77.7129 103.42 77.5678 103.85 77.2832C104.134 77.1382 104.419 76.9987 104.709 76.8536C105.278 76.569 105.708 76.2845 106.137 75.9943C106.422 75.8493 106.567 75.7098 106.852 75.5647C108.28 74.566 109.563 73.5673 110.852 72.4234L111.421 71.8543C111.851 71.4246 112.281 70.995 112.705 70.7105L113.419 69.9963L114.563 68.8524C114.847 68.5679 114.992 68.2833 115.277 67.9932C115.561 67.5635 115.991 67.279 116.276 66.8493C116.56 66.5648 116.705 66.2802 116.99 65.9901C117.274 65.5605 117.559 65.1308 117.849 64.8463C118.134 64.5617 118.279 64.2771 118.418 63.8475C118.563 63.5629 118.703 63.4179 118.848 63.1333C118.703 62.8487 118.563 62.7037 118.418 62.4191C118.273 62.1345 117.989 61.85 117.849 61.4204C117.564 60.9907 117.28 60.5611 116.99 60.2765C116.705 59.992 116.56 59.7074 116.276 59.4173C115.991 58.9876 115.706 58.7031 115.277 58.2734C114.992 57.9889 114.847 57.7043 114.563 57.4142C114.278 56.9845 113.848 56.7 113.419 56.2704L112.705 55.5562C112.275 55.1265 111.845 54.6969 111.421 54.4123L110.852 53.8432C109.569 52.6994 108.141 51.7006 106.852 50.7019C106.567 50.5568 106.422 50.4173 106.137 50.2723C105.708 49.9877 105.139 49.7031 104.709 49.413C104.424 49.2679 104.14 49.1284 103.85 48.9834C103.42 48.6988 102.99 48.4142 102.421 48.2692C102.137 48.1241 101.852 47.9846 101.423 47.8395C100.993 47.555 100.563 47.4099 99.9941 47.2704C99.7096 47.1254 99.28 46.9859 98.9954 46.8408C98.5658 46.6957 98.1361 46.5562 97.567 46.2717C97.2824 46.1266 96.8528 45.9871 96.5682 45.9871C96.1386 45.842 95.709 45.7025 95.1399 45.5575C94.7102 45.4124 94.4257 45.4124 93.996 45.2729C93.5664 45.1278 92.9973 44.9883 92.5676 44.9883C92.138 44.8433 91.8534 44.8433 91.4238 44.7038C90.9942 44.5587 90.4251 44.5587 89.9954 44.4192C89.5658 44.4192 89.2812 44.2741 88.8516 44.2741C88.422 44.2741 87.8528 44.1291 87.4232 44.1291C86.9936 44.1291 86.709 44.1291 86.2794 43.984H85.9948V44.4136C85.9892 44.1402 85.9892 44.4248 85.8497 44.8544V44.8544Z" fill="#667076"/>
<path d="M92.5625 44.2859C92.9921 44.431 93.5613 44.431 93.9909 44.5705C93.5613 44.4254 93.1316 44.4254 92.5625 44.2859Z" fill="#667076"/>
<path d="M97.5625 45.7143C97.9921 45.8594 98.4218 45.9989 98.9909 46.2834C98.4162 45.9989 97.9921 45.8538 97.5625 45.7143Z" fill="#667076"/>
<path d="M99.9893 46.567C100.419 46.7121 100.849 46.9966 101.418 47.1361C100.849 46.9966 100.419 46.8516 99.9893 46.567Z" fill="#667076"/>
<path d="M89.9902 43.856C90.4199 44.001 90.989 44.001 91.4186 44.1405C90.989 43.9955 90.5594 43.856 89.9902 43.856Z" fill="#667076"/>
<path d="M87.415 43.426C87.8447 43.426 88.4138 43.5711 88.8434 43.5711C88.4138 43.5711 87.9897 43.5711 87.415 43.426Z" fill="#667076"/>
<path d="M102.277 47.7112C102.707 47.9957 103.276 48.1408 103.706 48.4254C103.131 48.1408 102.701 47.8562 102.277 47.7112Z" fill="#667076"/>
<path d="M115.133 57.8557C115.417 58.2853 115.847 58.5698 116.132 58.9995C115.702 58.5698 115.417 58.1402 115.133 57.8557Z" fill="#667076"/>
<path d="M113.273 55.8516L114.417 56.9954C113.988 56.5658 113.703 56.1361 113.273 55.8516Z" fill="#667076"/>
<path d="M116.698 59.8525C116.983 60.2821 117.267 60.7117 117.558 60.9963C117.273 60.7117 116.983 60.2821 116.698 59.8525Z" fill="#667076"/>
<path d="M104.557 48.8553C105.126 49.1398 105.555 49.4244 105.985 49.7146C105.555 49.5695 104.986 49.1398 104.557 48.8553Z" fill="#667076"/>
<path d="M106.699 50.2837C108.128 51.2824 109.411 52.2811 110.7 53.425C109.417 52.2812 108.128 51.1373 106.699 50.2837Z" fill="#667076"/>
<path d="M111.27 53.8547C111.699 54.2843 112.129 54.5689 112.553 54.9985C112.129 54.7084 111.699 54.2843 111.27 53.8547Z" fill="#667076"/>
<path d="M95.1348 44.8544C95.5644 44.9994 95.994 45.1389 96.5632 45.284C95.9885 45.1389 95.5588 44.9994 95.1348 44.8544Z" fill="#667076"/>
<path d="M118.704 62.7101C118.558 62.4252 118.419 62.28 118.273 61.9951C118.413 62.28 118.558 62.4252 118.704 62.7101Z" fill="#667076"/>
<path d="M117.558 64.2833C117.274 64.713 116.989 65.1426 116.699 65.4271C116.984 65.137 117.274 64.7074 117.558 64.2833Z" fill="#667076"/>
<path d="M105.985 75.5648C105.555 75.8494 104.986 76.1339 104.557 76.4241C104.986 76.1339 105.555 75.8494 105.985 75.5648Z" fill="#667076"/>
<path d="M103.706 76.9932C103.276 77.2777 102.846 77.5623 102.277 77.7074C102.701 77.4228 103.131 77.1382 103.706 76.9932Z" fill="#667076"/>
<path d="M112.56 70.2811C112.13 70.7108 111.7 71.1404 111.276 71.425C111.7 70.9953 112.13 70.7108 112.56 70.2811Z" fill="#667076"/>
<path d="M115.984 66.426C115.7 66.8556 115.415 67.1402 114.985 67.5698C115.415 67.1402 115.7 66.85 115.984 66.426Z" fill="#667076"/>
<path d="M114.417 68.4229C114.133 68.8525 113.703 69.137 113.273 69.5667L114.417 68.4229Z" fill="#667076"/>
<path d="M101.27 78.1373C100.841 78.4218 100.411 78.5669 99.8418 78.7064C100.416 78.5669 100.846 78.2768 101.27 78.1373Z" fill="#667076"/>
<path d="M110.701 71.9938C109.418 73.1377 107.989 74.1364 106.7 75.1351C108.129 74.1364 109.417 73.1377 110.701 71.9938Z" fill="#667076"/>
<path d="M118.273 63.4244C118.419 63.1394 118.558 62.9942 118.704 62.7093C118.558 62.8545 118.413 63.1394 118.273 63.4244Z" fill="#667076"/>
<path d="M91.5641 81.2783C91.1345 81.4234 90.5654 81.4234 90.1357 81.5629C90.5598 81.5629 90.9894 81.4234 91.5641 81.2783Z" fill="#667076"/>
<path d="M98.9909 79.1357C98.5613 79.2808 98.1316 79.4203 97.5625 79.7049C97.9921 79.5654 98.4162 79.2808 98.9909 79.1357Z" fill="#667076"/>
<path d="M88.9909 81.7082C88.5613 81.7082 87.9921 81.8533 87.5625 81.8533C87.9921 81.8477 88.4162 81.8477 88.9909 81.7082Z" fill="#667076"/>
<path d="M93.9909 80.7098C93.5613 80.8549 92.9921 80.9944 92.5625 80.9944C93.1316 80.9944 93.5613 80.8493 93.9909 80.7098Z" fill="#667076"/>
<path d="M96.5632 79.9957C96.1335 80.1407 95.7039 80.2802 95.1348 80.4253C95.5588 80.2802 95.9885 80.1352 96.5632 79.9957Z" fill="#667076"/>
<path d="M81.4188 43.4259H80.8496C80.2805 43.4259 79.7058 43.571 78.9916 43.571C78.707 43.571 78.562 43.571 78.2774 43.7161C77.5632 43.8611 76.7039 44.0006 75.9897 44.1457H75.8446C75.1304 44.2908 74.2711 44.4303 73.5569 44.7148C73.2724 44.7148 73.1273 44.8599 72.8427 44.8599C72.2736 45.005 71.6989 45.1445 71.1298 45.429C70.9847 45.429 70.7002 45.5741 70.5607 45.5741C69.8465 45.8587 69.1323 46.1432 68.273 46.4334C68.1279 46.4334 67.9884 46.5784 67.9884 46.5784C67.5588 46.7235 67.1291 47.0081 66.7051 47.1476C66.8501 47.2926 66.9896 47.4321 67.2742 47.5772C67.9884 48.1463 68.7026 48.721 69.4168 49.2901C69.7014 49.5747 69.9859 49.7197 70.2761 50.0043C71.1353 50.7185 71.989 51.5778 72.8483 52.4314C73.7076 53.2907 74.4218 54.1443 75.2754 55.0037C75.56 55.2882 75.705 55.5728 75.9896 55.8629C76.5587 56.5771 77.1334 57.2913 77.7025 58.0055C77.8476 58.1506 77.9871 58.2901 78.1322 58.4351C78.2772 58.0055 78.5618 57.5759 78.7013 57.1518C78.7013 57.0067 78.8464 56.8672 78.8464 56.7222C79.1309 56.008 79.4155 55.2938 79.7056 54.4345C79.7056 54.2894 79.8507 54.0048 79.8507 53.8653C79.9957 53.2962 80.2803 52.7215 80.4198 52.1524C80.4198 51.8679 80.5649 51.7228 80.5649 51.4382C80.7099 50.724 80.9945 49.8647 81.134 49.1505C81.2791 48.4363 81.4186 47.577 81.5636 46.8628C81.5636 46.5783 81.5636 46.4332 81.7087 46.1486C81.8538 45.5795 81.8538 44.8653 81.8538 44.2906V43.7214V43.4369C81.7031 43.4257 81.5636 43.4257 81.4186 43.4257L81.4188 43.4259Z" fill="#667076"/>
<path d="M78.9922 43.5717C79.5613 43.4266 80.136 43.4266 80.8502 43.4266C80.2755 43.4266 79.5613 43.5717 78.9922 43.5717Z" fill="#667076"/>
<path d="M75.9893 44.1402C76.7035 43.9951 77.5628 43.8556 78.277 43.7106C77.5628 43.8556 76.8486 43.9951 75.9893 44.1402Z" fill="#667076"/>
<path d="M66.7041 47.1427C67.1337 46.9976 67.5634 46.713 67.9874 46.5735C67.5634 46.713 67.1337 46.9976 66.7041 47.1427Z" fill="#667076"/>
<path d="M68.418 46.4285C69.1322 46.1439 69.8464 45.8593 70.7057 45.5692C69.8464 45.8538 69.1322 46.1383 68.418 46.4285Z" fill="#667076"/>
<path d="M73.5635 44.7087C74.2777 44.5636 75.137 44.279 75.8512 44.1395C75.137 44.2846 74.4228 44.4241 73.5635 44.7087Z" fill="#667076"/>
<path d="M71.2744 45.4229C71.8435 45.2778 72.4182 44.9933 72.9873 44.8538C72.4182 44.9988 71.8491 45.1383 71.2744 45.4229Z" fill="#667076"/>
<path d="M81.7027 44.2859C81.7027 44.8551 81.5576 45.5693 81.5576 46.144C81.5632 45.4242 81.5632 44.8551 81.7027 44.2859Z" fill="#667076"/>
<path d="M81.4189 46.7127C81.2738 47.4269 81.1343 48.2862 80.9893 49.0004C81.1343 48.2806 81.2738 47.5665 81.4189 46.7127Z" fill="#667076"/>
<path d="M80.9881 49.1396C80.843 49.8538 80.7035 50.7131 80.4189 51.4273C80.7035 50.7131 80.8486 49.8538 80.9881 49.1396Z" fill="#667076"/>
<path d="M79.5604 54.4232C79.2759 55.1374 78.9913 55.8515 78.7012 56.7109C78.9913 55.9967 79.2759 55.2825 79.5604 54.4232Z" fill="#667076"/>
<path d="M77.9941 58.4241C78.1392 57.9944 78.4238 57.5648 78.5633 57.1407C78.2787 57.5648 78.1336 57.9944 77.9941 58.4241Z" fill="#667076"/>
<path d="M80.2742 52.142C80.1291 52.7112 79.9896 53.2859 79.7051 53.855C79.9896 53.2803 80.1347 52.7111 80.2742 52.142Z" fill="#667076"/>
<path d="M80.2761 86.132C79.7069 86.132 79.1322 85.9869 78.5631 85.9869C78.1335 85.9869 77.8489 85.8418 77.4193 85.8418C76.8502 85.6968 76.2755 85.6968 75.7064 85.5573C75.4218 85.5573 74.9922 85.4122 74.7076 85.4122C74.1385 85.2671 73.5638 85.1277 72.9947 84.9826C72.7101 84.8375 72.4256 84.8375 72.1354 84.698C71.4212 84.5529 70.5619 84.2684 69.8477 83.9838C69.7027 83.9838 69.5632 83.9838 69.5632 83.8388C68.7039 83.5542 67.8502 83.2696 66.9909 82.84C66.7064 82.6949 66.4218 82.5554 66.1317 82.4104C65.5625 82.1258 64.9878 81.9807 64.4187 81.6962C64.1342 81.5511 63.7045 81.4116 63.42 81.2665C63.1354 81.1215 62.8509 80.982 62.5607 80.8369C62.2762 80.982 61.9916 81.1215 61.7015 81.2665C61.4169 81.4116 60.9873 81.5511 60.7027 81.6962C60.1336 81.9807 59.5589 82.2653 58.9898 82.4104C58.7052 82.5554 58.4206 82.6949 58.1305 82.84C57.2713 83.1246 56.4176 83.5542 55.5583 83.8388C55.4132 83.8388 55.2737 83.8388 55.2737 83.9838C54.5595 84.2684 53.7002 84.4135 52.986 84.698C52.7014 84.8431 52.4169 84.8431 52.1267 84.9826C51.5576 85.1277 50.9829 85.2671 50.4138 85.4122C50.1292 85.5573 49.6996 85.5573 49.4151 85.5573C48.8459 85.7023 48.2712 85.7023 47.7021 85.8418C47.2725 85.8418 46.9879 85.9869 46.5583 85.9869C45.9892 85.9869 45.4145 86.132 44.8454 86.132C44.5608 86.132 44.1312 86.132 43.8466 86.277H43.417V86.5616C43.417 86.9912 43.417 87.2758 43.5621 87.7054C43.5621 88.1351 43.7071 88.7042 43.7071 89.1338C43.7071 89.5635 43.8522 89.848 43.8522 90.2777C43.9973 90.7073 43.9973 91.2764 44.1368 91.706C44.1368 92.1357 44.2818 92.4202 44.4213 92.8499C44.5664 93.2795 44.5664 93.8486 44.7059 94.2783C44.851 94.7079 44.851 94.9925 44.9904 95.4221C45.1355 95.8517 45.275 96.2813 45.4201 96.8505C45.5651 97.135 45.7046 97.5647 45.8497 97.8492C45.9948 98.2789 46.1343 98.7085 46.4188 99.2776C46.5639 99.5622 46.7034 99.9918 46.8485 100.276C46.9935 100.706 47.2781 101.136 47.4176 101.56C47.5627 101.844 47.7022 102.274 47.8472 102.558C48.1318 102.988 48.2769 103.418 48.5614 103.987C48.7065 104.271 48.846 104.556 48.9911 104.846C49.2756 105.276 49.5602 105.845 49.8503 106.274C49.9954 106.559 50.1349 106.704 50.2799 106.989C50.7096 107.703 51.2787 108.417 51.7083 108.986C52.2775 109.7 52.7071 110.269 53.2818 110.984C53.4269 111.129 53.7115 111.413 53.851 111.553C54.2806 111.982 54.5652 112.412 54.9948 112.836L55.709 113.55C56.1386 113.98 56.4232 114.264 56.8528 114.549C57.1374 114.834 57.4219 114.979 57.7121 115.263C58.1417 115.548 58.4263 115.977 58.8559 116.262C59.1405 116.547 59.425 116.692 59.7152 116.976C60.1448 117.261 60.5744 117.545 60.859 117.835C61.1436 118.12 61.4281 118.265 61.8577 118.405C62.1423 118.55 62.2874 118.689 62.5719 118.834C62.8565 118.689 63.0016 118.55 63.2861 118.405C63.5707 118.259 64.0003 117.975 64.2849 117.835C64.7145 117.551 65.1442 117.266 65.4287 116.976C65.7133 116.692 65.9979 116.547 66.288 116.262C66.7176 115.977 67.0022 115.693 67.4318 115.263C67.7164 114.979 68.0009 114.834 68.2911 114.549C68.7207 114.264 69.0053 113.835 69.4349 113.55L70.1491 112.836C70.5787 112.406 71.0084 111.977 71.2929 111.553C71.438 111.408 71.7225 111.123 71.862 110.984C72.4312 110.269 73.0059 109.7 73.4356 108.986C74.0047 108.272 74.4343 107.558 74.8639 106.989C75.009 106.704 75.1485 106.559 75.2936 106.274C75.5781 105.845 75.8627 105.276 76.1528 104.846C76.2979 104.562 76.4374 104.277 76.5825 103.987C76.867 103.557 77.1516 103.128 77.2967 102.558C77.4417 102.274 77.5812 101.989 77.7263 101.56C77.8714 101.13 78.1559 100.7 78.2954 100.276C78.4405 99.9918 78.58 99.5622 78.7251 99.2776C78.8701 98.848 79.0096 98.4184 79.2942 97.8492C79.4392 97.5647 79.5787 97.135 79.7238 96.8505C79.8689 96.4208 80.0084 95.9912 80.1534 95.4221C80.2985 94.9925 80.2985 94.7079 80.438 94.2783C80.5831 93.8486 80.7226 93.2795 80.7226 92.8499C80.8676 92.4202 80.8676 92.1357 81.0071 91.706C81.1522 91.2764 81.1522 90.7073 81.2917 90.2777C81.2917 89.848 81.4368 89.5635 81.4368 89.1338C81.4368 88.7042 81.5818 88.1351 81.5818 87.7054C81.5818 87.2758 81.5818 86.9912 81.7269 86.5616V86.277H81.2973C80.9904 86.277 80.5608 86.2771 80.2762 86.132H80.2761Z" fill="#667076"/>
<path d="M44.9951 96.7063C44.85 96.2767 44.7105 95.847 44.5654 95.2779C44.7105 95.847 44.85 96.2767 44.9951 96.7063Z" fill="#667076"/>
<path d="M46.992 101.56C46.8469 101.13 46.5623 100.701 46.4229 100.277C46.5679 100.706 46.7074 101.13 46.992 101.56Z" fill="#667076"/>
<path d="M48.1361 103.848C47.8515 103.419 47.5669 102.989 47.4219 102.42C47.7064 102.989 47.8515 103.419 48.1361 103.848Z" fill="#667076"/>
<path d="M44.2816 94.2795C44.1366 93.8499 43.9971 93.2808 43.9971 92.8511C44.1366 93.2752 44.2816 93.8499 44.2816 94.2795Z" fill="#667076"/>
<path d="M43.4214 89.1344C43.4214 88.7048 43.2764 88.1357 43.2764 87.7061C43.2819 88.2752 43.2819 88.7048 43.4214 89.1344Z" fill="#667076"/>
<path d="M49.5643 106.275C49.2798 105.845 48.9952 105.276 48.7051 104.847C48.9952 105.276 49.2798 105.706 49.5643 106.275Z" fill="#667076"/>
<path d="M43.7133 91.707C43.5682 91.2773 43.5682 90.7082 43.4287 90.2786C43.5682 90.8477 43.7133 91.2773 43.7133 91.707Z" fill="#667076"/>
<path d="M45.993 99.1332C45.8479 98.7036 45.7084 98.274 45.4238 97.7048C45.5633 98.274 45.7084 98.7036 45.993 99.1332Z" fill="#667076"/>
<path d="M61.7061 118.562C61.991 118.707 62.1362 118.847 62.4211 118.992C62.1362 118.702 61.991 118.702 61.7061 118.562Z" fill="#667076"/>
<path d="M60.8528 117.848C60.4232 117.563 59.9935 117.279 59.709 116.989C59.9935 117.273 60.4232 117.558 60.8528 117.848Z" fill="#667076"/>
<path d="M51.4225 108.986C50.8534 108.272 50.4238 107.558 49.9941 106.989C50.4238 107.558 50.9929 108.272 51.4225 108.986Z" fill="#667076"/>
<path d="M58.7102 116.274C58.2806 115.989 57.996 115.705 57.5664 115.275C57.851 115.705 58.2806 115.989 58.7102 116.274Z" fill="#667076"/>
<path d="M54.8489 112.849C54.4193 112.419 53.9896 111.989 53.7051 111.565C53.9952 111.989 54.4249 112.419 54.8489 112.849Z" fill="#667076"/>
<path d="M53.135 110.99C52.5659 110.276 51.9912 109.707 51.5615 108.993C51.9912 109.701 52.5659 110.276 53.135 110.99Z" fill="#667076"/>
<path d="M56.7054 114.7C56.2757 114.415 55.9912 113.986 55.5615 113.701C55.9912 113.986 56.2757 114.276 56.7054 114.7Z" fill="#667076"/>
<path d="M78.5633 100.132C78.4182 100.561 78.1336 100.991 77.9941 101.415C78.1336 101.13 78.2787 100.706 78.5633 100.132Z" fill="#667076"/>
<path d="M80.2744 95.4165C80.1293 95.8461 79.9898 96.2758 79.8447 96.8449C79.9898 96.2758 80.1349 95.8461 80.2744 95.4165Z" fill="#667076"/>
<path d="M79.4217 97.8505C79.2766 98.2802 79.1371 98.7098 78.8525 99.2789C79.1315 98.7042 79.2766 98.2746 79.4217 97.8505Z" fill="#667076"/>
<path d="M77.4173 102.558C77.1328 102.988 76.9877 103.418 76.7031 103.987C76.9877 103.418 77.1328 102.988 77.4173 102.558Z" fill="#667076"/>
<path d="M81.2728 90.2786C81.1278 90.7082 81.1278 91.2773 80.9883 91.707C81.1333 91.2773 81.2728 90.8477 81.2728 90.2786Z" fill="#667076"/>
<path d="M62.4199 118.847C62.7048 118.702 62.8501 118.562 63.135 118.417C62.8501 118.702 62.7048 118.702 62.4199 118.847Z" fill="#667076"/>
<path d="M80.8511 92.8511C80.7061 93.2808 80.7061 93.8499 80.5666 94.2795C80.561 93.8499 80.7061 93.2752 80.8511 92.8511Z" fill="#667076"/>
<path d="M71.137 111.559C70.7074 111.988 70.4228 112.418 69.9932 112.842C70.4228 112.418 70.8524 111.988 71.137 111.559Z" fill="#667076"/>
<path d="M67.2805 115.414C66.8509 115.699 66.5663 116.128 66.1367 116.413C66.5663 115.989 66.9904 115.704 67.2805 115.414Z" fill="#667076"/>
<path d="M65.2766 116.988C64.847 117.273 64.4174 117.557 64.1328 117.847C64.4229 117.557 64.847 117.273 65.2766 116.988Z" fill="#667076"/>
<path d="M69.2786 113.563C68.849 113.992 68.5644 114.277 68.1348 114.562C68.5644 114.277 68.849 113.987 69.2786 113.563Z" fill="#667076"/>
<path d="M76.1366 104.701C75.852 105.131 75.5675 105.7 75.2773 106.129C75.5619 105.705 75.852 105.276 76.1366 104.701Z" fill="#667076"/>
<path d="M81.565 87.7061C81.565 88.1357 81.4199 88.7048 81.4199 89.1344C81.565 88.7048 81.565 88.2752 81.565 87.7061Z" fill="#667076"/>
<path d="M74.8454 106.989C74.4158 107.704 73.8466 108.418 73.417 108.987C73.8466 108.273 74.4213 107.558 74.8454 106.989Z" fill="#667076"/>
<path d="M73.4173 108.986C72.8481 109.7 72.4185 110.269 71.8438 110.984C72.279 110.275 72.8481 109.7 73.4173 108.986Z" fill="#667076"/>
<path d="M55.4243 76.1333C55.1397 75.8487 54.8552 75.7037 54.565 75.4191C53.7058 74.7049 52.707 73.8456 51.9928 72.992C51.1335 72.1327 50.4193 71.2791 49.5657 70.4198C49.2811 70.1352 49.136 69.8506 48.8515 69.5605C48.2823 68.8463 47.7076 68.1321 47.1385 67.4179C46.9935 67.2728 46.854 67.1333 46.7089 66.9883C46.5638 67.4179 46.2793 67.8475 46.1398 68.2716C46.1398 68.4167 45.9947 68.5562 45.9947 68.7012C45.7102 69.4154 45.4256 70.1296 45.1355 70.9889C45.1355 71.134 44.9904 71.4186 44.9904 71.5581C44.8453 72.1272 44.5608 72.7019 44.4213 73.271C44.4213 73.5556 44.2762 73.7006 44.2762 73.9852C44.1311 74.6994 43.8466 75.5587 43.7071 76.2729C43.562 76.9871 43.4225 77.8464 43.2774 78.5606C43.2774 78.8452 43.2774 78.9902 43.1324 79.2748C42.9873 79.8439 42.9873 80.5581 42.9873 81.1328V81.702V81.9865H43.2719H43.841C44.4101 81.9865 45.1243 81.8415 45.699 81.8415C45.9836 81.8415 46.1287 81.8415 46.4132 81.6964C47.1274 81.5513 47.9867 81.4118 48.7009 81.2668C49.4151 81.1217 50.2745 80.9822 50.9887 80.6976C51.2732 80.6976 51.4183 80.5526 51.7028 80.5526C52.272 80.4075 52.8467 80.268 53.4158 79.9835C53.5608 79.9835 53.8454 79.8384 53.9849 79.8384C54.6991 79.5538 55.4133 79.2693 56.2726 78.9791C56.4177 78.9791 56.5572 78.8341 56.7022 78.8341C57.1319 78.689 57.5615 78.4044 57.9856 78.2649C57.8405 78.1199 57.701 77.9804 57.4164 77.8353C56.8529 77.2773 56.1387 76.7082 55.4245 76.1335L55.4243 76.1333Z" fill="#667076"/>
<path d="M43.1357 81.1326C43.1357 80.5635 43.2808 79.8493 43.2808 79.2745C43.2808 79.8492 43.2808 80.5634 43.1357 81.1326Z" fill="#667076"/>
<path d="M43.8506 76.2789C43.9957 75.5647 44.1351 74.7054 44.4197 73.9912C44.1351 74.7054 43.9957 75.4196 43.8506 76.2789Z" fill="#667076"/>
<path d="M44.5645 73.2765C44.7095 72.7074 44.849 72.1327 45.1336 71.5636C44.849 72.1383 44.7095 72.7074 44.5645 73.2765Z" fill="#667076"/>
<path d="M45.2783 70.8497C45.5629 70.1355 45.8474 69.4213 46.1376 68.562C45.853 69.4212 45.5629 70.1355 45.2783 70.8497Z" fill="#667076"/>
<path d="M46.8543 66.9944C46.7092 67.424 46.4247 67.8536 46.2852 68.2777C46.5697 67.8536 46.7092 67.424 46.8543 66.9944Z" fill="#667076"/>
<path d="M43.4219 78.5672C43.5669 77.853 43.7064 76.9937 43.8515 76.2795C43.712 76.9937 43.5669 77.853 43.4219 78.5672Z" fill="#667076"/>
<path d="M51.2779 80.7098C50.5637 80.8549 49.7044 81.1395 48.9902 81.279C49.71 81.1339 50.4242 80.8493 51.2779 80.7098Z" fill="#667076"/>
<path d="M56.4225 78.99C55.7083 79.2746 54.9941 79.5591 54.1348 79.8493C54.994 79.5647 55.7083 79.2801 56.4225 78.99Z" fill="#667076"/>
<path d="M58.1349 78.2758C57.7053 78.4208 57.2756 78.7054 56.8516 78.8449C57.2812 78.5659 57.7053 78.4208 58.1349 78.2758Z" fill="#667076"/>
<path d="M45.8551 81.7082C45.286 81.8533 44.5718 81.8533 43.9971 81.8533C44.5662 81.8477 45.2804 81.8477 45.8551 81.7082Z" fill="#667076"/>
<path d="M48.8502 81.2783C48.136 81.4234 47.2767 81.5629 46.5625 81.708C47.2823 81.5629 47.9965 81.4234 48.8502 81.2783Z" fill="#667076"/>
<path d="M53.5655 79.9957C52.9963 80.1407 52.4216 80.4253 51.8525 80.5648C52.4217 80.4197 52.9964 80.1352 53.5655 79.9957Z" fill="#667076"/>
<path d="M75.8509 69.7054C75.5664 69.99 75.4213 70.2746 75.1367 70.5647C74.4225 71.424 73.5632 72.4227 72.7096 73.1369C71.8504 73.9962 70.9967 74.7105 70.1374 75.5641C69.8528 75.8486 69.5682 75.9937 69.2781 76.2783C68.5639 76.8474 67.8497 77.4221 67.1355 77.9912C66.9905 78.1362 66.851 78.2757 66.5664 78.4208C66.996 78.5659 67.4257 78.8504 67.8497 78.9899C67.9948 78.9899 68.1343 79.135 68.2794 79.135C68.9936 79.4196 69.7077 79.7041 70.5671 79.9943C70.7121 79.9943 70.9967 80.1393 71.1362 80.1393C71.7053 80.2844 72.28 80.569 72.8491 80.7085C73.1337 80.7085 73.2787 80.8535 73.5633 80.8535C74.2775 80.9986 75.1368 81.2832 75.851 81.4227C76.5652 81.5677 77.4245 81.7072 78.1387 81.8523C78.4233 81.8523 78.5684 81.8523 78.8529 81.9974C79.422 82.1424 80.1362 82.1424 80.711 82.1424H81.2801H81.5647V81.8579V81.2887C81.5647 80.7196 81.4196 80.0054 81.4196 79.4307C81.4196 79.1461 81.4196 79.001 81.2745 78.7165C81.1295 78.0023 80.99 77.143 80.8449 76.4288C80.6998 75.7146 80.5603 74.8553 80.2758 74.1411C80.2758 73.8565 80.1307 73.7114 80.1307 73.4269C79.9856 72.8577 79.8461 72.283 79.5616 71.7139C79.5616 71.5689 79.4165 71.2843 79.4165 71.1448C79.1319 70.4306 78.8474 69.7164 78.5572 68.8571C78.5572 68.712 78.4122 68.5726 78.4122 68.4275C78.2671 67.9979 77.9825 67.5682 77.843 67.1442C77.698 67.2892 77.5585 67.4287 77.4134 67.5738C76.9894 68.2768 76.4202 68.991 75.851 69.7052L75.8509 69.7054Z" fill="#667076"/>
<path d="M79.7061 71.4253C79.8511 71.9944 80.1357 72.5691 80.2752 73.1382C80.1357 72.7086 79.9906 72.1395 79.7061 71.4253Z" fill="#667076"/>
<path d="M80.9883 76.2789C81.1333 76.9931 81.2728 77.8524 81.4179 78.5666C81.2728 77.8524 81.1333 76.9931 80.9883 76.2789Z" fill="#667076"/>
<path d="M81.4199 79.2814C81.565 79.8506 81.565 80.5648 81.565 81.1395C81.565 80.5648 81.565 79.8506 81.4199 79.2814Z" fill="#667076"/>
<path d="M78.707 68.707C78.9916 69.4212 79.2762 70.1354 79.5663 70.9947C79.2762 70.1355 78.9916 69.4212 78.707 68.707Z" fill="#667076"/>
<path d="M80.4209 73.8521C80.566 74.5662 80.8505 75.4256 80.99 76.1398C80.8505 75.42 80.7055 74.7058 80.4209 73.8521Z" fill="#667076"/>
<path d="M77.9941 66.9944C78.1392 67.424 78.4238 67.8536 78.5633 68.2777C78.2787 67.8536 78.1336 67.424 77.9941 66.9944Z" fill="#667076"/>
<path d="M80.8502 81.9925C80.2811 81.9925 79.5669 81.8475 78.9922 81.8475C79.5613 81.8475 80.2755 81.8475 80.8502 81.9925Z" fill="#667076"/>
<path d="M72.9942 80.5642C72.425 80.4191 71.8503 80.2796 71.2812 79.9951C71.8504 80.1345 72.4195 80.4191 72.9942 80.5642Z" fill="#667076"/>
<path d="M70.5602 79.8499C69.846 79.5654 69.1318 79.2808 68.2725 78.9907C69.1317 79.2808 69.846 79.5654 70.5602 79.8499Z" fill="#667076"/>
<path d="M66.7041 78.2758C67.1337 78.4208 67.5634 78.7054 67.9874 78.8449C67.5634 78.5659 67.1337 78.4208 66.7041 78.2758Z" fill="#667076"/>
<path d="M78.2789 81.7082C77.5647 81.5631 76.7054 81.4236 75.9912 81.2786C76.8505 81.4236 77.5647 81.5631 78.2789 81.7082Z" fill="#667076"/>
<path d="M75.9899 81.2784C75.2757 81.1333 74.4163 80.9938 73.7021 80.7092C74.4219 80.8487 75.1361 81.1333 75.9899 81.2784Z" fill="#667076"/>
<path d="M61.7059 49.9995C61.4213 50.1445 61.1368 50.4291 60.8466 50.5686C60.417 50.8531 59.9874 51.1377 59.5633 51.4278C59.2788 51.5729 58.9942 51.8575 58.8491 51.997C58.4195 52.2815 57.9899 52.7112 57.5658 53.1408C57.4207 53.2859 57.1362 53.4254 56.9967 53.7099C56.4275 54.2791 55.7133 54.8538 55.1386 55.4228C54.5695 55.992 53.9948 56.5667 53.4257 57.2809C53.2806 57.426 52.9961 57.7105 52.8566 57.9951C52.4269 58.4247 52.1424 58.8544 51.8578 59.2784C51.7127 59.563 51.4282 59.8475 51.2887 60.1377C51.0041 60.5673 50.7196 60.9969 50.4294 61.421C50.2844 61.7056 49.9998 61.9901 49.8603 62.2803C49.7152 62.5648 49.5757 62.7099 49.4307 62.9945C49.5757 63.279 49.7152 63.4241 49.8603 63.7086C50.0054 63.9932 50.2899 64.2778 50.4294 64.5679C50.714 64.9975 50.9986 65.4272 51.2887 65.8512C51.4338 66.1358 51.7183 66.4204 51.8578 66.5654C52.1424 66.9951 52.572 67.4247 53.0016 67.8487C53.1467 67.9938 53.2862 68.2784 53.5708 68.4179C54.7146 69.7012 55.8585 70.845 57.1417 71.9888C57.2868 72.1339 57.5714 72.2734 57.7109 72.558C58.1405 72.9876 58.5701 73.2722 58.9942 73.7018C59.2787 73.8469 59.5633 74.1314 59.7084 74.2709C60.138 74.5555 60.5676 74.84 60.9917 75.1302C61.2763 75.2753 61.5608 75.5598 61.851 75.6993C62.1355 75.8444 62.2806 75.9839 62.5652 76.1289C62.8497 75.9839 62.9948 75.8444 63.2794 75.6993C63.5639 75.5542 63.8485 75.2697 64.1386 75.1302C64.5682 74.8456 64.9979 74.5611 65.4219 74.2709C65.7065 74.1259 65.9911 73.8413 66.1361 73.7018C66.5658 73.4172 66.9954 72.9876 67.4195 72.558C67.5645 72.4129 67.8491 72.2734 67.9886 71.9888C69.2719 70.845 70.4157 69.7011 71.5595 68.4179C71.7046 68.2728 71.8441 67.9882 72.1287 67.8487C72.5583 67.4191 72.8429 66.9895 73.2725 66.5654C73.4176 66.2809 73.7021 65.9963 73.8416 65.8512C74.1262 65.4216 74.4108 64.992 74.7009 64.5679C74.846 64.2833 75.1305 63.9988 75.27 63.7086C75.4151 63.4241 75.5546 63.279 75.6996 62.9945C75.5546 62.7099 75.4151 62.5648 75.27 62.2803C75.125 61.9957 74.8404 61.7111 74.7009 61.421C74.4163 60.9914 74.1318 60.5617 73.8416 60.1377C73.6966 59.8531 73.412 59.5685 73.2725 59.2784C72.9879 58.8488 72.5583 58.4192 72.2737 57.9951C72.1287 57.7105 71.8441 57.5655 71.7046 57.2809C71.1355 56.7118 70.5608 55.9976 69.9917 55.4228C69.4226 54.8537 68.8479 54.279 68.1336 53.7099C67.9886 53.5649 67.704 53.4254 67.5645 53.1408C67.1349 52.7112 66.7053 52.4266 66.2812 51.997C65.9966 51.8519 65.7121 51.5673 65.567 51.4278C65.1374 51.1433 64.7077 50.8587 64.2837 50.5686C63.9991 50.4235 63.7146 50.139 63.4244 49.9995C63.1399 49.8544 62.9948 49.7149 62.7102 49.5698C62.1355 49.7093 61.9904 49.7093 61.7059 49.9995Z" fill="#667076"/>
<path d="M62.4211 49.4238C62.1362 49.569 61.991 49.7087 61.7061 49.8539C61.991 49.7087 62.1362 49.7087 62.4211 49.4238Z" fill="#667076"/>
<path d="M55.1387 55.2831C55.7078 54.714 56.2825 54.1393 56.9967 53.5702C56.2769 54.1393 55.7078 54.7084 55.1387 55.2831Z" fill="#667076"/>
<path d="M57.5664 53.1404C57.996 52.7108 58.4257 52.4262 58.8497 51.9966C58.4201 52.2811 57.996 52.7108 57.5664 53.1404Z" fill="#667076"/>
<path d="M59.5625 51.4279C59.9921 51.1433 60.4218 50.8587 60.8458 50.5686C60.4218 50.7137 59.9921 51.1377 59.5625 51.4279Z" fill="#667076"/>
<path d="M53.2812 57.1414C53.8504 56.5722 54.4251 55.8581 54.9942 55.2833C54.425 55.8525 53.8503 56.5666 53.2812 57.1414Z" fill="#667076"/>
<path d="M50.2773 61.1351C50.5619 60.7055 50.8465 60.2759 51.1366 59.8518C50.852 60.2814 50.5619 60.7111 50.2773 61.1351Z" fill="#667076"/>
<path d="M51.7061 59.1383C51.9906 58.7087 52.4202 58.279 52.7048 57.855C52.4202 58.279 52.1357 58.7087 51.7061 59.1383Z" fill="#667076"/>
<path d="M49.7104 61.9951C49.5652 62.28 49.4255 62.4252 49.2803 62.7101C49.4255 62.4252 49.5652 62.28 49.7104 61.9951Z" fill="#667076"/>
<path d="M71.9883 57.8557C72.4179 58.2853 72.7025 58.7149 72.987 59.139C72.7025 58.7093 72.4179 58.2797 71.9883 57.8557Z" fill="#667076"/>
<path d="M65.9902 51.9964C66.4199 52.281 66.8495 52.7106 67.2736 53.1402C66.8495 52.7106 66.4199 52.281 65.9902 51.9964Z" fill="#667076"/>
<path d="M63.9941 50.4222C64.4238 50.7068 64.8534 50.9914 65.2775 51.2815C64.8478 51.1364 64.4238 50.7124 63.9941 50.4222Z" fill="#667076"/>
<path d="M73.709 59.8525C73.9935 60.2821 74.2781 60.7117 74.5682 61.1358C74.2781 60.7117 73.9935 60.2821 73.709 59.8525Z" fill="#667076"/>
<path d="M67.9951 53.5704C68.5642 54.1396 69.2784 54.7143 69.8532 55.2834C69.1334 54.7087 68.5643 54.1395 67.9951 53.5704Z" fill="#667076"/>
<path d="M69.8457 55.283C70.4148 55.8521 70.9895 56.4268 71.5586 57.1411C70.9895 56.5664 70.4204 55.8522 69.8457 55.283Z" fill="#667076"/>
<path d="M75.56 62.7101C75.4148 62.4252 75.2751 62.28 75.1299 61.9951C75.2751 62.28 75.4204 62.4252 75.56 62.7101Z" fill="#667076"/>
<path d="M63.135 50C62.8501 49.8547 62.7048 49.7151 62.4199 49.5698C62.7048 49.7095 62.8501 49.7095 63.135 50Z" fill="#667076"/>
<path d="M61.7061 75.4191C61.991 75.5643 62.1362 75.704 62.4211 75.8492C62.1362 75.7096 61.991 75.5643 61.7061 75.4191Z" fill="#667076"/>
<path d="M49.2803 62.7093C49.4255 62.9942 49.5652 63.1394 49.7104 63.4244C49.5652 63.1394 49.4255 62.8545 49.2803 62.7093Z" fill="#667076"/>
<path d="M58.8488 73.4221C58.4191 73.1376 57.9895 72.708 57.5654 72.2783C57.9951 72.708 58.4191 72.9925 58.8488 73.4221Z" fill="#667076"/>
<path d="M53.2812 68.277C54.4251 69.5604 55.569 70.7042 56.8522 71.848C55.5633 70.7098 54.4251 69.4209 53.2812 68.277Z" fill="#667076"/>
<path d="M60.8527 74.8505C60.423 74.566 59.9934 74.2814 59.5693 73.9913C59.9934 74.2814 60.423 74.566 60.8527 74.8505Z" fill="#667076"/>
<path d="M51.1395 65.566C50.855 65.1364 50.5704 64.7068 50.2803 64.2827C50.5648 64.7068 50.855 65.1364 51.1395 65.566Z" fill="#667076"/>
<path d="M52.8518 67.5629C52.4222 67.1332 52.1376 66.7036 51.708 66.2795C52.1376 66.7092 52.4222 67.1388 52.8518 67.5629Z" fill="#667076"/>
<path d="M67.2804 72.2781C66.8508 72.7077 66.4211 72.9923 65.9971 73.4219C66.4211 72.9923 66.8508 72.7077 67.2804 72.2781Z" fill="#667076"/>
<path d="M62.4199 75.8495C62.7048 75.7042 62.8501 75.5646 63.135 75.4193C62.8501 75.5646 62.7048 75.7098 62.4199 75.8495Z" fill="#667076"/>
<path d="M73.1321 66.2803C72.8475 66.7099 72.4179 67.1395 71.9883 67.5636C72.4179 67.1395 72.7025 66.7099 73.1321 66.2803Z" fill="#667076"/>
<path d="M74.5614 64.2833C74.2769 64.713 73.9923 65.1426 73.7021 65.5666C73.9923 65.137 74.2769 64.7074 74.5614 64.2833Z" fill="#667076"/>
<path d="M65.2765 73.9906C64.8469 74.2752 64.4172 74.5597 63.9932 74.8499C64.4228 74.5653 64.8469 74.2807 65.2765 73.9906Z" fill="#667076"/>
<path d="M75.1377 63.4244C75.2829 63.1394 75.4226 62.9942 75.5678 62.7093C75.4226 62.8545 75.2774 63.1394 75.1377 63.4244Z" fill="#667076"/>
<path d="M67.9951 71.848C69.2784 70.7042 70.4222 69.5603 71.5661 68.277C70.4223 69.4209 69.2784 70.7097 67.9951 71.848Z" fill="#667076"/>
</svg>
