<svg width="125" height="117" viewBox="0 0 125 117" fill="none" xmlns="http://www.w3.org/2000/svg">
<path d="M122.71 68.8863C120.073 59.0523 113.769 50.83 104.946 45.7413C103.53 44.9259 101.889 44.169 100.136 43.5148C100.459 41.6008 100.62 39.7843 100.62 38.2463C100.62 17.2263 83.5197 0.126282 62.4997 0.126282C41.4797 0.126282 24.3797 17.2263 24.3797 38.2463C24.3797 39.8772 24.5506 41.6935 24.8582 43.5247C23.037 44.1985 21.3817 44.9699 20.0486 45.7414C11.2302 50.8342 4.92108 59.0514 2.28983 68.8864C-0.346923 78.7204 1.0057 88.9939 6.09845 97.8126C12.8856 109.57 25.5472 116.875 39.141 116.875C45.7962 116.875 52.3785 115.108 58.1697 111.763C59.5711 110.952 61.0652 109.898 62.5057 108.711C63.9998 109.946 65.494 110.996 66.827 111.763C72.618 115.108 79.1999 116.875 85.8607 116.875C99.4494 116.875 112.111 109.57 118.898 97.8126C123.991 88.9943 125.343 78.7214 122.712 68.8864L122.71 68.8863ZM28.8422 38.2463C28.8422 19.6813 43.9397 4.58378 62.4997 4.58378C81.0597 4.58378 96.1572 19.6813 96.1572 38.2463C96.1572 41.8303 95.1171 47.4943 92.827 51.4588L69.3645 92.0938L65.0725 84.6621L86.3913 47.7384C87.9098 45.1114 88.7253 40.8878 88.7253 38.2462C88.7253 23.7837 76.9625 12.0212 62.5003 12.0212C48.0378 12.0163 36.2753 23.7839 36.2753 38.2462C36.2753 39.2032 36.3778 40.3018 36.5634 41.42H35.3915C33.37 41.42 31.2411 41.7228 29.1708 42.211C28.9559 40.8145 28.8436 39.4474 28.8436 38.2462L28.8422 38.2463ZM93.8372 58.6275C94.9309 58.9986 95.9807 59.4478 96.7669 59.9019C101.801 62.8071 105.405 67.5044 106.909 73.1194C108.412 78.7347 107.641 84.6038 104.731 89.6381C100.854 96.352 93.6224 100.527 85.8533 100.527C82.0593 100.527 78.3044 99.516 74.9988 97.6069C74.2078 97.1528 73.2947 96.4692 72.4304 95.7075L93.8372 58.6275ZM41.0934 41.42C40.8688 40.2872 40.7321 39.1544 40.7321 38.2462C40.7321 26.2442 50.4977 16.4787 62.4996 16.4787C74.5015 16.4787 84.2671 26.2443 84.2671 38.2462C84.2671 39.1299 84.1352 40.2725 83.9058 41.42H41.0934ZM62.4997 80.2038L49.5509 57.7725H75.4497L62.4997 80.2038ZM55.942 107.904C50.8248 110.858 45.0143 112.42 39.1408 112.42C27.1388 112.42 15.957 105.97 9.96579 95.5841C5.46866 87.796 4.27729 78.7291 6.60154 70.0417C8.93066 61.36 14.497 54.0992 22.2853 49.6017C25.3908 47.8097 30.8155 45.8809 35.3903 45.8809H82.319L78.027 53.3125H35.3908C32.3585 53.3125 28.2912 54.7188 26.0012 56.0372C19.9318 59.5382 15.5959 65.1973 13.7795 71.9647C11.968 78.7323 12.8958 85.7971 16.4017 91.8671C21.0745 99.958 29.7854 104.987 39.1404 104.987C43.7157 104.987 48.237 103.771 52.2267 101.467C53.0519 100.988 53.9503 100.348 54.834 99.6306L55.42 100.646C56.4307 102.399 57.7589 104.094 59.2189 105.637C58.1153 106.515 56.9924 107.292 55.9425 107.902L55.942 107.904ZM31.162 58.6263L52.5683 95.7013C51.6992 96.463 50.786 97.1465 49.995 97.6006C46.6845 99.5098 42.9297 100.521 39.1405 100.521C31.372 100.521 24.1405 96.3458 20.263 89.6319C17.3578 84.5978 16.5814 78.7334 18.0902 73.1131C19.594 67.4979 23.1975 62.8055 28.2318 59.8957C28.9935 59.4562 30.0482 59.0021 31.1615 58.6262L31.162 58.6263ZM115.04 95.5788C109.043 105.965 97.867 112.415 85.8595 112.415C79.9807 112.415 74.17 110.853 69.0583 107.898C65.9528 106.106 61.568 102.371 59.2829 98.4111L35.8167 57.7712H44.4007L62.5007 89.1186L65.7184 94.6948C66.2604 95.6323 67.0368 96.6284 68.0182 97.6489C69.4634 99.1528 71.2408 100.579 72.774 101.462C76.7633 103.762 81.2848 104.983 85.8603 104.983C95.2158 104.983 103.927 99.9536 108.599 91.8629C112.1 85.7984 113.033 78.7279 111.221 71.9604C109.41 65.1928 105.069 59.5385 98.9995 56.0329C98.1695 55.5544 97.1685 55.0954 96.104 54.695L96.69 53.6794C97.7007 51.9265 98.5063 49.9294 99.1167 47.8933C100.435 48.4109 101.675 48.9919 102.715 49.5974C110.503 54.0945 116.07 61.3503 118.399 70.0374C120.728 78.7245 119.532 87.7961 115.04 95.5799L115.04 95.5788Z" fill="#667076"/>
</svg>
