<svg width="126" height="109" viewBox="0 0 126 109" fill="none" xmlns="http://www.w3.org/2000/svg">
<path d="M121.753 108.535H125.301L78.1489 26.8721L78.1326 26.8992L78.1218 26.883L48.0923 78.896H43.9635L76.0597 23.3079L74.2911 20.2372L40.4199 78.8961H36.2857L72.218 16.6566L70.4494 13.5859L32.7434 78.8962H28.6146L68.3831 10.0095L66.6145 6.93873L25.0724 78.8964H20.9436L64.5482 3.36925L62.7741 0.298523L15.6278 81.9618H15.6604L15.6495 81.9835H75.7085L77.7702 85.5589L13.5765 85.5643L11.8078 88.635H79.5446L81.6117 92.2103L9.74713 92.2049L7.9785 95.2702L83.3862 95.2756L85.4479 98.8509H5.90542L4.13679 101.922L87.2154 101.927L89.2771 105.502L2.07483 105.497L0.300781 108.568H94.6003L94.584 108.541H94.6057L64.5763 56.5276L66.638 52.9522L98.7341 108.54L102.277 108.535L68.4113 49.8815L70.473 46.3062L106.405 108.546L109.948 108.54L72.2464 43.2341L74.3135 39.6588L114.082 108.546L117.625 108.54L76.0882 36.5825L78.1553 33.0072L121.753 108.535ZM73.9548 78.9184H51.6241L62.7896 59.5766L73.9548 78.9184Z" fill="#667076"/>
</svg>
