<svg width="74" height="15" fill="none" xmlns="http://www.w3.org/2000/svg">
  <path d="M0 6.256c0-.337.175-.65.461-.827l6.161-3.806a5 5 0 0 1 5.256 0l3.994 2.468a5 5 0 0 0 5.256 0l3.994-2.468a5 5 0 0 1 5.256 0l3.994 2.468a5 5 0 0 0 5.256 0l3.994-2.468a5 5 0 0 1 5.256 0l3.994 2.468a5 5 0 0 0 5.256 0l3.994-2.468a5 5 0 0 1 5.256 0l6.16 3.806a.972.972 0 0 1-1.021 1.655L67.12 3.75a4.51 4.51 0 0 0-4.74 0l-4.252 2.627a5 5 0 0 1-5.256 0l-3.994-2.468a5 5 0 0 0-5.256 0l-3.994 2.468a5 5 0 0 1-5.256 0l-3.994-2.468a5 5 0 0 0-5.256 0l-3.994 2.468a5 5 0 0 1-5.256 0L11.62 3.75a4.51 4.51 0 0 0-4.74 0L1.483 7.084A.972.972 0 0 1 0 6.257zm0 7.001c0-.338.175-.65.461-.828l6.161-3.806a5 5 0 0 1 5.256 0l3.994 2.468a5 5 0 0 0 5.256 0l3.994-2.468a5 5 0 0 1 5.256 0l3.994 2.468a5 5 0 0 0 5.256 0l3.994-2.468a5 5 0 0 1 5.256 0l3.994 2.468a5 5 0 0 0 5.256 0l3.994-2.468a5 5 0 0 1 5.256 0l6.16 3.806a.973.973 0 0 1-1.021 1.655L67.12 10.75a4.51 4.51 0 0 0-4.74 0l-4.252 2.627a5 5 0 0 1-5.256 0l-3.994-2.468a5 5 0 0 0-5.256 0l-3.994 2.468a5 5 0 0 1-5.256 0l-3.994-2.468a5 5 0 0 0-5.256 0l-3.994 2.468a5 5 0 0 1-5.256 0L11.62 10.75a4.51 4.51 0 0 0-4.74 0l-5.397 3.334A.972.972 0 0 1 0 13.257z" fill="#D5DDE2"/>
</svg>
